<mxfile host="app.diagrams.net" modified="2020-10-22T04:11:56.044Z" agent="5.0 (Macintosh; Intel Mac OS X 10_15_7) AppleWebKit/537.36 (KHTML, like Gecko) Chrome/86.0.4240.80 Safari/537.36" etag="DSsDLAToId2BLryRQ3g_" version="13.8.1" type="github">
  <diagram name="Page-1" id="e7e014a7-5840-1c2e-5031-d8a46d1fe8dd">
    <mxGraphModel dx="1577" dy="765" grid="1" gridSize="10" guides="1" tooltips="1" connect="1" arrows="1" fold="1" page="1" pageScale="1" pageWidth="1169" pageHeight="826" background="#ffffff" math="0" shadow="0">
      <root>
        <mxCell id="0" />
        <mxCell id="1" parent="0" />
        <mxCell id="HGyzchCO2jw8irIRbuGs-41" value="RegistrarUI" style="html=1;verticalAlign=bottom;startArrow=circle;startFill=1;endArrow=open;startSize=6;endSize=8;entryX=0.5;entryY=0;entryDx=0;entryDy=0;" edge="1" parent="1" target="HGyzchCO2jw8irIRbuGs-42">
          <mxGeometry x="-1" y="-10" width="80" relative="1" as="geometry">
            <mxPoint x="220" y="50" as="sourcePoint" />
            <mxPoint x="220" y="130" as="targetPoint" />
            <mxPoint x="10" y="-10" as="offset" />
          </mxGeometry>
        </mxCell>
        <mxCell id="HGyzchCO2jw8irIRbuGs-42" value="获取用户名、密码" style="ellipse;whiteSpace=wrap;html=1;" vertex="1" parent="1">
          <mxGeometry x="150" y="110" width="140" height="70" as="geometry" />
        </mxCell>
        <mxCell id="HGyzchCO2jw8irIRbuGs-48" value="验证用户名和密码" style="ellipse;whiteSpace=wrap;html=1;" vertex="1" parent="1">
          <mxGeometry x="350" y="180" width="140" height="70" as="geometry" />
        </mxCell>
        <mxCell id="HGyzchCO2jw8irIRbuGs-49" value="" style="endArrow=classic;html=1;exitX=0.457;exitY=0.986;exitDx=0;exitDy=0;exitPerimeter=0;entryX=0;entryY=0.5;entryDx=0;entryDy=0;" edge="1" parent="1" source="HGyzchCO2jw8irIRbuGs-42" target="HGyzchCO2jw8irIRbuGs-48">
          <mxGeometry width="50" height="50" relative="1" as="geometry">
            <mxPoint x="240" y="250" as="sourcePoint" />
            <mxPoint x="290" y="200" as="targetPoint" />
            <Array as="points">
              <mxPoint x="214" y="215" />
            </Array>
          </mxGeometry>
        </mxCell>
        <mxCell id="HGyzchCO2jw8irIRbuGs-50" value="" style="html=1;whiteSpace=wrap;aspect=fixed;shape=isoRectangle;" vertex="1" parent="1">
          <mxGeometry x="403.33000000000004" y="310" width="33.33" height="20" as="geometry" />
        </mxCell>
        <mxCell id="HGyzchCO2jw8irIRbuGs-51" value="" style="endArrow=classic;html=1;exitX=0.5;exitY=1;exitDx=0;exitDy=0;entryX=0.5;entryY=0;entryDx=0;entryDy=0;entryPerimeter=0;" edge="1" parent="1" source="HGyzchCO2jw8irIRbuGs-48" target="HGyzchCO2jw8irIRbuGs-50">
          <mxGeometry width="50" height="50" relative="1" as="geometry">
            <mxPoint x="350" y="340" as="sourcePoint" />
            <mxPoint x="400" y="290" as="targetPoint" />
          </mxGeometry>
        </mxCell>
        <mxCell id="HGyzchCO2jw8irIRbuGs-52" value="验证未通过，并选择重新登录" style="endArrow=classic;html=1;entryX=0;entryY=0.5;entryDx=0;entryDy=0;" edge="1" parent="1" target="HGyzchCO2jw8irIRbuGs-42">
          <mxGeometry width="50" height="50" relative="1" as="geometry">
            <mxPoint x="400" y="321" as="sourcePoint" />
            <mxPoint x="300" y="300" as="targetPoint" />
            <Array as="points">
              <mxPoint x="100" y="321" />
              <mxPoint x="100" y="145" />
            </Array>
          </mxGeometry>
        </mxCell>
        <mxCell id="HGyzchCO2jw8irIRbuGs-53" value="" style="ellipse;html=1;shape=endState;fillColor=#000000;strokeColor=#ff0000;" vertex="1" parent="1">
          <mxGeometry x="160" y="550" width="30" height="30" as="geometry" />
        </mxCell>
        <mxCell id="HGyzchCO2jw8irIRbuGs-55" value="验证未通过，并选择退出" style="endArrow=classic;html=1;entryX=0.5;entryY=0;entryDx=0;entryDy=0;" edge="1" parent="1" target="HGyzchCO2jw8irIRbuGs-53">
          <mxGeometry width="50" height="50" relative="1" as="geometry">
            <mxPoint x="415" y="330" as="sourcePoint" />
            <mxPoint x="150" y="450" as="targetPoint" />
            <Array as="points">
              <mxPoint x="415" y="360" />
              <mxPoint x="175" y="360" />
            </Array>
          </mxGeometry>
        </mxCell>
        <mxCell id="HGyzchCO2jw8irIRbuGs-56" value="验证通过" style="endArrow=classic;html=1;" edge="1" parent="1">
          <mxGeometry width="50" height="50" relative="1" as="geometry">
            <mxPoint x="440" y="320" as="sourcePoint" />
            <mxPoint x="520" y="320" as="targetPoint" />
          </mxGeometry>
        </mxCell>
        <mxCell id="HGyzchCO2jw8irIRbuGs-57" value="获取用户命令" style="ellipse;whiteSpace=wrap;html=1;" vertex="1" parent="1">
          <mxGeometry x="525" y="280" width="120" height="80" as="geometry" />
        </mxCell>
        <mxCell id="HGyzchCO2jw8irIRbuGs-59" value="" style="endArrow=classic;html=1;exitX=0.5;exitY=1;exitDx=0;exitDy=0;" edge="1" parent="1" source="HGyzchCO2jw8irIRbuGs-57">
          <mxGeometry width="50" height="50" relative="1" as="geometry">
            <mxPoint x="580" y="450" as="sourcePoint" />
            <mxPoint x="585" y="400" as="targetPoint" />
          </mxGeometry>
        </mxCell>
        <mxCell id="HGyzchCO2jw8irIRbuGs-61" value="" style="html=1;whiteSpace=wrap;aspect=fixed;shape=isoRectangle;" vertex="1" parent="1">
          <mxGeometry x="568.34" y="400" width="33.33" height="20" as="geometry" />
        </mxCell>
        <mxCell id="HGyzchCO2jw8irIRbuGs-62" value="搜索商品" style="ellipse;whiteSpace=wrap;html=1;" vertex="1" parent="1">
          <mxGeometry x="710" y="470" width="120" height="80" as="geometry" />
        </mxCell>
        <mxCell id="HGyzchCO2jw8irIRbuGs-63" value="搜索商品" style="ellipse;whiteSpace=wrap;html=1;" vertex="1" parent="1">
          <mxGeometry x="525.01" y="470" width="120" height="80" as="geometry" />
        </mxCell>
        <mxCell id="HGyzchCO2jw8irIRbuGs-64" value="商品添加购物车" style="ellipse;whiteSpace=wrap;html=1;" vertex="1" parent="1">
          <mxGeometry x="525" y="620" width="120" height="80" as="geometry" />
        </mxCell>
        <mxCell id="HGyzchCO2jw8irIRbuGs-65" value="查看订单" style="ellipse;whiteSpace=wrap;html=1;" vertex="1" parent="1">
          <mxGeometry x="350" y="470" width="120" height="80" as="geometry" />
        </mxCell>
        <mxCell id="HGyzchCO2jw8irIRbuGs-66" value="用户要求退出" style="endArrow=classic;html=1;entryX=1;entryY=0.5;entryDx=0;entryDy=0;exitX=0.5;exitY=1;exitDx=0;exitDy=0;" edge="1" parent="1" source="HGyzchCO2jw8irIRbuGs-65" target="HGyzchCO2jw8irIRbuGs-53">
          <mxGeometry width="50" height="50" relative="1" as="geometry">
            <mxPoint x="260" y="620" as="sourcePoint" />
            <mxPoint x="310" y="570" as="targetPoint" />
            <Array as="points">
              <mxPoint x="410" y="565" />
            </Array>
          </mxGeometry>
        </mxCell>
        <mxCell id="HGyzchCO2jw8irIRbuGs-67" value="用户搜索商品" style="endArrow=classic;html=1;exitX=0.44;exitY=0.95;exitDx=0;exitDy=0;exitPerimeter=0;entryX=0.5;entryY=0;entryDx=0;entryDy=0;" edge="1" parent="1" source="HGyzchCO2jw8irIRbuGs-61" target="HGyzchCO2jw8irIRbuGs-63">
          <mxGeometry width="50" height="50" relative="1" as="geometry">
            <mxPoint x="500" y="420" as="sourcePoint" />
            <mxPoint x="583" y="430" as="targetPoint" />
          </mxGeometry>
        </mxCell>
        <mxCell id="HGyzchCO2jw8irIRbuGs-68" value="用户查看订单" style="endArrow=classic;html=1;entryX=0.5;entryY=0;entryDx=0;entryDy=0;exitX=0.47;exitY=1;exitDx=0;exitDy=0;exitPerimeter=0;" edge="1" parent="1" source="HGyzchCO2jw8irIRbuGs-61" target="HGyzchCO2jw8irIRbuGs-65">
          <mxGeometry width="50" height="50" relative="1" as="geometry">
            <mxPoint x="490" y="430" as="sourcePoint" />
            <mxPoint x="540" y="380" as="targetPoint" />
            <Array as="points">
              <mxPoint x="584" y="440" />
              <mxPoint x="410" y="440" />
            </Array>
          </mxGeometry>
        </mxCell>
        <mxCell id="HGyzchCO2jw8irIRbuGs-69" value="用户浏览商品" style="endArrow=classic;html=1;entryX=0.5;entryY=0;entryDx=0;entryDy=0;exitX=0.59;exitY=1.1;exitDx=0;exitDy=0;exitPerimeter=0;" edge="1" parent="1" source="HGyzchCO2jw8irIRbuGs-61" target="HGyzchCO2jw8irIRbuGs-62">
          <mxGeometry width="50" height="50" relative="1" as="geometry">
            <mxPoint x="580" y="420" as="sourcePoint" />
            <mxPoint x="760" y="390" as="targetPoint" />
            <Array as="points">
              <mxPoint x="588" y="440" />
              <mxPoint x="770" y="440" />
            </Array>
          </mxGeometry>
        </mxCell>
        <mxCell id="HGyzchCO2jw8irIRbuGs-70" value="" style="endArrow=classic;html=1;exitX=0.5;exitY=1;exitDx=0;exitDy=0;entryX=0.5;entryY=0;entryDx=0;entryDy=0;" edge="1" parent="1" source="HGyzchCO2jw8irIRbuGs-63" target="HGyzchCO2jw8irIRbuGs-64">
          <mxGeometry width="50" height="50" relative="1" as="geometry">
            <mxPoint x="560" y="610" as="sourcePoint" />
            <mxPoint x="610" y="560" as="targetPoint" />
          </mxGeometry>
        </mxCell>
        <mxCell id="HGyzchCO2jw8irIRbuGs-71" value="" style="endArrow=classic;html=1;exitX=0.5;exitY=1;exitDx=0;exitDy=0;entryX=0.5;entryY=0;entryDx=0;entryDy=0;" edge="1" parent="1" source="HGyzchCO2jw8irIRbuGs-62" target="HGyzchCO2jw8irIRbuGs-64">
          <mxGeometry width="50" height="50" relative="1" as="geometry">
            <mxPoint x="720" y="650" as="sourcePoint" />
            <mxPoint x="770" y="600" as="targetPoint" />
            <Array as="points">
              <mxPoint x="770" y="590" />
              <mxPoint x="585" y="590" />
            </Array>
          </mxGeometry>
        </mxCell>
        <mxCell id="HGyzchCO2jw8irIRbuGs-72" value="确认订单" style="ellipse;whiteSpace=wrap;html=1;" vertex="1" parent="1">
          <mxGeometry x="525" y="740" width="120" height="80" as="geometry" />
        </mxCell>
        <mxCell id="HGyzchCO2jw8irIRbuGs-73" value="选择支付方式并支付" style="ellipse;whiteSpace=wrap;html=1;" vertex="1" parent="1">
          <mxGeometry x="210" y="740" width="120" height="80" as="geometry" />
        </mxCell>
        <mxCell id="HGyzchCO2jw8irIRbuGs-74" value="生成订单" style="ellipse;whiteSpace=wrap;html=1;" vertex="1" parent="1">
          <mxGeometry x="40" y="740" width="120" height="80" as="geometry" />
        </mxCell>
        <mxCell id="HGyzchCO2jw8irIRbuGs-75" value="" style="endArrow=classic;html=1;exitX=0.5;exitY=1;exitDx=0;exitDy=0;" edge="1" parent="1" source="HGyzchCO2jw8irIRbuGs-81" target="HGyzchCO2jw8irIRbuGs-83">
          <mxGeometry width="50" height="50" relative="1" as="geometry">
            <mxPoint x="390" y="720" as="sourcePoint" />
            <mxPoint x="585" y="738" as="targetPoint" />
          </mxGeometry>
        </mxCell>
        <mxCell id="HGyzchCO2jw8irIRbuGs-76" value="" style="endArrow=classic;html=1;exitX=0;exitY=0.5;exitDx=0;exitDy=0;entryX=1;entryY=0.5;entryDx=0;entryDy=0;" edge="1" parent="1" source="HGyzchCO2jw8irIRbuGs-72" target="HGyzchCO2jw8irIRbuGs-79">
          <mxGeometry width="50" height="50" relative="1" as="geometry">
            <mxPoint x="595" y="710" as="sourcePoint" />
            <mxPoint x="620" y="890" as="targetPoint" />
          </mxGeometry>
        </mxCell>
        <mxCell id="HGyzchCO2jw8irIRbuGs-77" value="" style="endArrow=classic;html=1;exitX=0;exitY=0.5;exitDx=0;exitDy=0;entryX=1;entryY=0.5;entryDx=0;entryDy=0;" edge="1" parent="1" source="HGyzchCO2jw8irIRbuGs-73" target="HGyzchCO2jw8irIRbuGs-74">
          <mxGeometry width="50" height="50" relative="1" as="geometry">
            <mxPoint x="595" y="860" as="sourcePoint" />
            <mxPoint x="595.01" y="890" as="targetPoint" />
          </mxGeometry>
        </mxCell>
        <mxCell id="HGyzchCO2jw8irIRbuGs-78" value="" style="endArrow=classic;html=1;exitX=0.5;exitY=0;exitDx=0;exitDy=0;entryX=0.5;entryY=1;entryDx=0;entryDy=0;" edge="1" parent="1" source="HGyzchCO2jw8irIRbuGs-74" target="HGyzchCO2jw8irIRbuGs-65">
          <mxGeometry width="50" height="50" relative="1" as="geometry">
            <mxPoint x="390" y="740" as="sourcePoint" />
            <mxPoint x="440" y="690" as="targetPoint" />
            <Array as="points">
              <mxPoint x="100" y="670" />
              <mxPoint x="410" y="670" />
            </Array>
          </mxGeometry>
        </mxCell>
        <mxCell id="HGyzchCO2jw8irIRbuGs-79" value="确认配送地址" style="ellipse;whiteSpace=wrap;html=1;" vertex="1" parent="1">
          <mxGeometry x="370" y="740" width="120" height="80" as="geometry" />
        </mxCell>
        <mxCell id="HGyzchCO2jw8irIRbuGs-80" value="" style="endArrow=classic;html=1;entryX=1;entryY=0.5;entryDx=0;entryDy=0;exitX=0;exitY=0.5;exitDx=0;exitDy=0;" edge="1" parent="1" source="HGyzchCO2jw8irIRbuGs-79" target="HGyzchCO2jw8irIRbuGs-73">
          <mxGeometry width="50" height="50" relative="1" as="geometry">
            <mxPoint x="330" y="750" as="sourcePoint" />
            <mxPoint x="380" y="700" as="targetPoint" />
          </mxGeometry>
        </mxCell>
        <mxCell id="HGyzchCO2jw8irIRbuGs-81" value="用户选择" style="ellipse;whiteSpace=wrap;html=1;" vertex="1" parent="1">
          <mxGeometry x="710" y="620" width="120" height="80" as="geometry" />
        </mxCell>
        <mxCell id="HGyzchCO2jw8irIRbuGs-83" value="" style="html=1;whiteSpace=wrap;aspect=fixed;shape=isoRectangle;" vertex="1" parent="1">
          <mxGeometry x="753.33" y="770" width="33.33" height="20" as="geometry" />
        </mxCell>
        <mxCell id="HGyzchCO2jw8irIRbuGs-84" value="" style="endArrow=classic;html=1;exitX=1;exitY=0.5;exitDx=0;exitDy=0;entryX=0;entryY=0.5;entryDx=0;entryDy=0;" edge="1" parent="1" source="HGyzchCO2jw8irIRbuGs-64" target="HGyzchCO2jw8irIRbuGs-81">
          <mxGeometry width="50" height="50" relative="1" as="geometry">
            <mxPoint x="535" y="790" as="sourcePoint" />
            <mxPoint x="500" y="790" as="targetPoint" />
          </mxGeometry>
        </mxCell>
        <mxCell id="HGyzchCO2jw8irIRbuGs-85" value="用户确认订单" style="endArrow=classic;html=1;entryX=1;entryY=0.5;entryDx=0;entryDy=0;" edge="1" parent="1" source="HGyzchCO2jw8irIRbuGs-83" target="HGyzchCO2jw8irIRbuGs-72">
          <mxGeometry width="50" height="50" relative="1" as="geometry">
            <mxPoint x="545" y="800" as="sourcePoint" />
            <mxPoint x="510" y="800" as="targetPoint" />
          </mxGeometry>
        </mxCell>
        <mxCell id="HGyzchCO2jw8irIRbuGs-86" value="联系店家改价" style="ellipse;whiteSpace=wrap;html=1;" vertex="1" parent="1">
          <mxGeometry x="710" y="860" width="120" height="80" as="geometry" />
        </mxCell>
        <mxCell id="HGyzchCO2jw8irIRbuGs-87" value="联系店家改价" style="endArrow=classic;html=1;entryX=0.5;entryY=0;entryDx=0;entryDy=0;" edge="1" parent="1" target="HGyzchCO2jw8irIRbuGs-86">
          <mxGeometry width="50" height="50" relative="1" as="geometry">
            <mxPoint x="770" y="791" as="sourcePoint" />
            <mxPoint x="810" y="820" as="targetPoint" />
          </mxGeometry>
        </mxCell>
        <mxCell id="HGyzchCO2jw8irIRbuGs-88" value="" style="endArrow=classic;html=1;exitX=0;exitY=0.5;exitDx=0;exitDy=0;entryX=0.5;entryY=1;entryDx=0;entryDy=0;" edge="1" parent="1" source="HGyzchCO2jw8irIRbuGs-86" target="HGyzchCO2jw8irIRbuGs-72">
          <mxGeometry width="50" height="50" relative="1" as="geometry">
            <mxPoint x="530" y="940" as="sourcePoint" />
            <mxPoint x="580" y="890" as="targetPoint" />
            <Array as="points">
              <mxPoint x="585" y="900" />
            </Array>
          </mxGeometry>
        </mxCell>
        <mxCell id="HGyzchCO2jw8irIRbuGs-89" value="使用优惠券" style="ellipse;whiteSpace=wrap;html=1;" vertex="1" parent="1">
          <mxGeometry x="525" y="940" width="120" height="80" as="geometry" />
        </mxCell>
        <mxCell id="HGyzchCO2jw8irIRbuGs-91" value="" style="endArrow=classic;html=1;exitX=0.5;exitY=1;exitDx=0;exitDy=0;entryX=1;entryY=0.5;entryDx=0;entryDy=0;" edge="1" parent="1" source="HGyzchCO2jw8irIRbuGs-86" target="HGyzchCO2jw8irIRbuGs-89">
          <mxGeometry width="50" height="50" relative="1" as="geometry">
            <mxPoint x="790" y="1030" as="sourcePoint" />
            <mxPoint x="840" y="980" as="targetPoint" />
            <Array as="points">
              <mxPoint x="770" y="980" />
            </Array>
          </mxGeometry>
        </mxCell>
        <mxCell id="HGyzchCO2jw8irIRbuGs-92" value="" style="endArrow=classic;html=1;entryX=0.5;entryY=1;entryDx=0;entryDy=0;exitX=0.5;exitY=0;exitDx=0;exitDy=0;" edge="1" parent="1" source="HGyzchCO2jw8irIRbuGs-89" target="HGyzchCO2jw8irIRbuGs-72">
          <mxGeometry width="50" height="50" relative="1" as="geometry">
            <mxPoint x="440" y="960" as="sourcePoint" />
            <mxPoint x="490" y="910" as="targetPoint" />
          </mxGeometry>
        </mxCell>
        <mxCell id="HGyzchCO2jw8irIRbuGs-93" value="确认收货" style="ellipse;whiteSpace=wrap;html=1;" vertex="1" parent="1">
          <mxGeometry x="210" y="380" width="120" height="80" as="geometry" />
        </mxCell>
        <mxCell id="HGyzchCO2jw8irIRbuGs-94" value="申请退货" style="ellipse;whiteSpace=wrap;html=1;" vertex="1" parent="1">
          <mxGeometry x="210" y="470" width="120" height="80" as="geometry" />
        </mxCell>
        <mxCell id="HGyzchCO2jw8irIRbuGs-95" value="" style="endArrow=classic;html=1;entryX=1;entryY=0.5;entryDx=0;entryDy=0;exitX=0;exitY=0.5;exitDx=0;exitDy=0;" edge="1" parent="1" source="HGyzchCO2jw8irIRbuGs-65" target="HGyzchCO2jw8irIRbuGs-94">
          <mxGeometry width="50" height="50" relative="1" as="geometry">
            <mxPoint x="340" y="540" as="sourcePoint" />
            <mxPoint x="390" y="490" as="targetPoint" />
          </mxGeometry>
        </mxCell>
        <mxCell id="HGyzchCO2jw8irIRbuGs-96" value="" style="endArrow=classic;html=1;entryX=1;entryY=0.5;entryDx=0;entryDy=0;" edge="1" parent="1" target="HGyzchCO2jw8irIRbuGs-93">
          <mxGeometry width="50" height="50" relative="1" as="geometry">
            <mxPoint x="410" y="470" as="sourcePoint" />
            <mxPoint x="430" y="400" as="targetPoint" />
            <Array as="points">
              <mxPoint x="410" y="420" />
            </Array>
          </mxGeometry>
        </mxCell>
        <mxCell id="HGyzchCO2jw8irIRbuGs-97" value="" style="endArrow=classic;html=1;entryX=0.5;entryY=0;entryDx=0;entryDy=0;exitX=0;exitY=0.5;exitDx=0;exitDy=0;" edge="1" parent="1" source="HGyzchCO2jw8irIRbuGs-94" target="HGyzchCO2jw8irIRbuGs-53">
          <mxGeometry width="50" height="50" relative="1" as="geometry">
            <mxPoint x="80" y="510" as="sourcePoint" />
            <mxPoint x="130" y="460" as="targetPoint" />
            <Array as="points">
              <mxPoint x="175" y="510" />
            </Array>
          </mxGeometry>
        </mxCell>
        <mxCell id="HGyzchCO2jw8irIRbuGs-98" value="" style="endArrow=classic;html=1;entryX=0.5;entryY=0;entryDx=0;entryDy=0;exitX=0;exitY=0.5;exitDx=0;exitDy=0;" edge="1" parent="1" source="HGyzchCO2jw8irIRbuGs-93" target="HGyzchCO2jw8irIRbuGs-53">
          <mxGeometry width="50" height="50" relative="1" as="geometry">
            <mxPoint x="90" y="530" as="sourcePoint" />
            <mxPoint x="140" y="480" as="targetPoint" />
            <Array as="points">
              <mxPoint x="175" y="420" />
            </Array>
          </mxGeometry>
        </mxCell>
      </root>
    </mxGraphModel>
  </diagram>
</mxfile>
